<?xml version="1.0" encoding="utf-8"?>
<!-- Uploaded to: SVG Repo, www.svgrepo.com, Generator: SVG Repo Mixer Tools -->
<svg fill="#000000" height="800px" width="800px" version="1.2" baseProfile="tiny" id="Layer_1" xmlns="http://www.w3.org/2000/svg" xmlns:xlink="http://www.w3.org/1999/xlink"
	  viewBox="-63 65 128 128" xml:space="preserve">
<path d="M2.3,159.7h38.8h0.2c-1.1-9.9-30.6-60.1-31-62.5c-0.7-6.8,1.8-16.7,3.6-22.9c-0.2-3.8-3.5-6.3-7.3-6.3H6.6H6.5
	c-3.3,0-6,2.2-6.9,5.2C-1.3,70.3-4,68-7.3,68h-0.1h-0.1c-3.7,0-6.9,2.4-7.3,6.3c1.9,6.2,4.3,16.1,3.5,22.9
	c-0.4,2.4-30,52.6-31.1,62.5h39.1v9.5l-10.8,11.1c-0.8-0.5-1.7-0.8-2.6-0.8c-2.7,0-5.1,2.3-5.1,5.1c0,2.7,2.3,5.1,5.1,5.1
	c2.2,0,4-1.5,4.7-3.4l8.3-8.5l1.5-1.5v0.1h3.6l1.4,1.4l8.4,8.6c0.7,2,2.5,3.4,4.7,3.4c2.7,0,5.1-2.3,5.1-5.1c0-2.7-2.3-5.1-5.1-5.1
	c-0.9,0-1.8,0.3-2.6,0.8L2.3,169.2V159.7z"/>
</svg>